<?xml version="1.0" encoding="utf-8"?>
<!-- Generator: Adobe Illustrator 16.0.4, SVG Export Plug-In . SVG Version: 6.00 Build 0)  -->
<!DOCTYPE svg PUBLIC "-//W3C//DTD SVG 1.1//EN" "http://www.w3.org/Graphics/SVG/1.1/DTD/svg11.dtd">
<svg version="1.1" id="Layer_1" xmlns="http://www.w3.org/2000/svg" xmlns:xlink="http://www.w3.org/1999/xlink" x="0px" y="0px"
	 width="64px" height="64px" viewBox="0 0 64 64" enable-background="new 0 0 64 64" xml:space="preserve">
<circle fill="#32393F" cx="32" cy="32" r="32"/>
<path fill="#FFFFFF" d="M22.324,22.362c-2.57,2.571-3.988,5.991-3.988,9.627s1.418,7.056,3.988,9.629
	c2.602,2.601,6.088,3.988,9.637,3.988c1.659,0,3.33-0.302,4.933-0.927c0.221-0.084,0.329-0.329,0.243-0.549
	c-0.085-0.22-0.331-0.329-0.55-0.242c-4.722,1.837-10.082,0.707-13.661-2.871c-2.41-2.411-3.739-5.618-3.739-9.027
	s1.329-6.615,3.739-9.025l0.521-0.521v4.014c0,0.234,0.191,0.426,0.427,0.426c0.233,0,0.425-0.191,0.425-0.426v-5.105
	c0-0.234-0.191-0.426-0.425-0.426h-5.107c-0.233,0-0.425,0.191-0.425,0.426s0.191,0.425,0.425,0.425h4.145L22.324,22.362z
	 M39.616,37.522v5.106c0,0.123,0.054,0.23,0.137,0.31c0.004,0.004,0.005,0.007,0.009,0.012c0.082,0.083,0.368,0.112,0.402,0.103
	h4.984c0.233,0,0.426-0.189,0.426-0.424s-0.192-0.426-0.426-0.426h-4.039l0.567-0.568c2.571-2.569,3.987-5.991,3.987-9.628
	c0-3.636-1.416-7.056-3.987-9.628c-3.755-3.755-9.398-4.985-14.376-3.138c-0.221,0.083-0.332,0.327-0.25,0.548
	c0.081,0.221,0.329,0.333,0.546,0.251c4.668-1.735,9.96-0.579,13.478,2.941c2.411,2.41,3.738,5.618,3.738,9.026
	c0,3.409-1.327,6.616-3.738,9.027l-0.605,0.605v-4.118c0-0.234-0.192-0.428-0.428-0.428C39.808,37.095,39.616,37.288,39.616,37.522z
	"/>
</svg>
